<?xml version="1.0" standalone="no"?>
<!DOCTYPE svg PUBLIC "-//W3C//DTD SVG 20010904//EN"
 "http://www.w3.org/TR/2001/REC-SVG-20010904/DTD/svg10.dtd">
<svg version="1.0" xmlns="http://www.w3.org/2000/svg"
 width="30.000000pt" height="30.000000pt" viewBox="0 0 96.000000 96.000000"
 preserveAspectRatio="xMidYMid meet">

<g transform="translate(0.000000,96.000000) scale(0.100000,-0.100000)"
 stroke="none">
<path d="M54 735 c-4 -8 -4 -22 0 -30 5 -13 59 -15 428 -13 l423 3 0 25 0 25
-423 3 c-369 2 -423 0 -428 -13z"/>
<path d="M54 495 c-4 -8 -4 -22 0 -30 5 -13 59 -15 428 -13 l423 3 0 25 0 25
-423 3 c-369 2 -423 0 -428 -13z"/>
<path d="M54 255 c-4 -8 -4 -22 0 -30 5 -13 59 -15 428 -13 l423 3 0 25 0 25
-423 3 c-369 2 -423 0 -428 -13z"/>
</g>
</svg>
